<svg version="1.2" baseProfile="tiny-ps" xmlns="http://www.w3.org/2000/svg" viewBox="0 0 163 133" width="163" height="133">
	<title>section_1</title>
	<style>
		tspan { white-space:pre }
		.shp0 { fill-opacity: 0.902;fill: #bc7d00 } 
	</style>
	<g id="section_1">
		<g id="scroll_2">
			<path id="twitter" class="shp0" d="M163 15.31L147.72 30.63C147.72 30.63 147.72 29.24 147.72 33.18C147.72 35.98 147.27 38.65 146.62 41.25C146.26 62.31 139.56 90.25 112.06 112.3C57.96 155.67 0 117.4 0 117.4C45.84 117.4 45.84 102.09 45.84 102.09C35.66 102.09 15.28 81.67 15.28 81.67C20.37 86.77 30.56 81.67 30.56 81.67C5.09 66.36 5.09 51.04 5.09 51.04C10.19 56.15 20.37 51.04 20.37 51.04C-5.09 30.63 10.19 5.1 10.19 5.1C15.28 30.63 81.5 40.83 81.5 40.83L82.34 40.41C81.82 38.08 81.5 33.12 81.5 30.63C81.5 12.3 96.32 0 114.61 0C124.67 0 133.58 4.6 139.65 11.7L142.62 10.21L157.91 0L147.72 20.42L163 15.31Z" />
		</g>
	</g>
</svg>